<?xml version="1.0" encoding="UTF-8"?>
<svg id="Calque_1" xmlns="http://www.w3.org/2000/svg" version="1.1" viewBox="0 0 204.1 51.2">
  <!-- Generator: Adobe Illustrator 29.1.0, SVG Export Plug-In . SVG Version: 2.1.0 Build 142)  -->
  <defs>
    <style>
      .st0 {
        fill: #624de3;
      }

      .st1 {
        fill: #090514;
      }
    </style>
  </defs>
  <path class="st1" d="M19.7,39.3C8.8,39.3,0,30.5,0,19.6S8.8-.1,19.7-.1h6.6v13.1h13.1v6.6c0,10.9-8.8,19.7-19.7,19.7ZM19.7,13.1c-3.6,0-6.6,2.9-6.6,6.6s2.9,6.6,6.6,6.6,6.6-2.9,6.6-6.6v-6.6h-6.6Z"/>
  <rect class="st0" x="39.4" width="13.1" height="13.1"/>
  <rect class="st0" x="26.2" y="38.1" width="13.1" height="13.1"/>
  <rect class="st0" y="38.1" width="13.1" height="13.1"/>
  <g>
    <path class="st1" d="M131.4,14.4h-.7c-1.5,0-2.7,1.2-2.7,2.7v11.1c0,2.7-1.3,4-4,4s-4.1-1.3-4.1-4v-11.1c0-1.5-1.2-2.7-2.7-2.7h-.8c-1.5,0-2.7,1.2-2.7,2.7v11.1c0,6.1,4,10.1,10.2,10.1s10.1-4,10.1-10.1v-11.1c0-1.5-1.2-2.7-2.7-2.7h.1Z"/>
    <path class="st1" d="M201.5,14.4h-.7c-1.5,0-2.7,1.2-2.7,2.7v11.1c0,2.7-1.3,4-4,4s-4.1-1.3-4.1-4v-11.1c0-1.5-1.2-2.7-2.7-2.7h-.8c-1.5,0-2.7,1.2-2.7,2.7v11.1c0,6.1,4,10.1,10.2,10.1s10.1-4,10.1-10.1v-11.1c0-1.5-1.2-2.7-2.7-2.7h.1Z"/>
    <path class="st1" d="M146.4,14.1c-6.2,0-10.2,4-10.2,10.1v11.1c0,1.5,1.2,2.7,2.7,2.7h.8c1.5,0,2.7-1.2,2.7-2.7v-11.1c0-2.7,1.3-4,4.1-4s4.1,1.3,4.1,4v11.1c0,1.5,1.2,2.7,2.7,2.7h.8c1.5,0,2.7-1.2,2.7-2.7v-11.1c0-6.1-4-10.1-10.2-10.1h-.2Z"/>
    <path class="st1" d="M169.1,14.4h-6.5c-1.5,0-2.7,1.2-2.7,2.7v18.1c0,1.5,1.2,2.7,2.7,2.7h6.5c7.5,0,12.3-4.6,12.3-11.8s-4.8-11.8-12.3-11.8h0ZM169.1,31.9h-3.1v-11.4h3.1c4.1,0,6.1,1.9,6.1,5.7s-2.1,5.7-6.1,5.7h0Z"/>
    <path class="st1" d="M63.1,14.1c-7.1,0-12.3,5.1-12.3,12.1s5.2,12.1,12.3,12.1,12.3-5.1,12.3-12.1-5.2-12.1-12.3-12.1ZM63.1,32.3c-3.7,0-6.2-2.4-6.2-6.1s2.5-6.1,6.2-6.1,6.2,2.4,6.2,6.1-2.5,6.1-6.2,6.1Z"/>
    <path class="st1" d="M101.4,14.1c-2.9,0-5.4.9-7.2,2.5-1.8-1.6-4.2-2.5-7.2-2.5-6.2,0-10.2,4-10.2,10.1v11.1c0,1.5,1.2,2.7,2.7,2.7h.8c1.5,0,2.7-1.2,2.7-2.7v-11.1c0-2.7,1.3-4,4.1-4s4.1,1.3,4.1,4h0v11.1c0,1.5,1.2,2.7,2.7,2.7h.8c1.5,0,2.7-1.2,2.7-2.7v-11.1h0c0-2.7,1.3-4,4.1-4s4.1,1.3,4.1,4v11.1c0,1.5,1.2,2.7,2.7,2.7h.8c1.5,0,2.7-1.2,2.7-2.7v-11.1c0-6.1-4-10.1-10.2-10.1h-.2Z"/>
  </g>
</svg>