<svg width="106" height="120" viewBox="0 0 106 120" fill="none" xmlns="http://www.w3.org/2000/svg">
<g clip-path="url(#clip0_417_2)">
<path d="M-0.0788107 39.5877L39.9293 -0.0791016H105.955V47.5163C105.955 56.8021 102.091 65.1805 95.8866 71.1648C95.6561 71.4004 56.8164 109.908 56.58 110.136C36.3474 131.108 -0.155651 116.661 -0.0788107 87.1851V39.5896V39.5877Z" fill="url(#paint0_linear_417_2)"/>
<path d="M7.47714 68.4056C7.47714 66.6733 8.55881 65.3496 10.2887 65.3496C11.7309 65.3496 12.5841 66.2079 12.7062 67.3175H11.526C11.4196 66.7283 10.9763 66.3454 10.2887 66.3454C9.20703 66.3454 8.69082 67.2449 8.69082 68.4036C8.69082 69.5624 9.31342 70.454 10.2966 70.454C10.9941 70.454 11.4846 70.0377 11.5595 69.4249H12.7239C12.6904 69.9395 12.4698 70.4383 12.0757 70.8056C11.6738 71.1807 11.1083 71.4262 10.2966 71.4262C8.64944 71.4262 7.47714 70.1594 7.47714 68.4036V68.4056Z" fill="white"/>
<path d="M13.0589 65.4639H14.1741V71.3048H13.0589V65.4639Z" fill="white"/>
<path d="M17.222 70.8386H17.2063C16.9935 71.1567 16.6901 71.4022 15.969 71.4022C15.108 71.4022 14.5011 70.9525 14.5011 70.1198C14.5011 69.1967 15.2557 68.9021 16.1896 68.7725C16.8871 68.6743 17.2063 68.6173 17.2063 68.2991C17.2063 67.9967 16.9679 67.8003 16.5009 67.8003C15.9768 67.8003 15.7227 67.9888 15.6892 68.3895H14.6981C14.7316 67.6549 15.2794 67.0088 16.5088 67.0088C17.7383 67.0088 18.2781 67.5725 18.2781 68.5525V70.6854C18.2781 71.0036 18.3274 71.1921 18.4259 71.2648V71.306H17.3521C17.2871 71.2235 17.2457 71.0291 17.2201 70.8405L17.222 70.8386ZM17.2299 69.8271V69.1986C17.0329 69.3126 16.7295 69.3793 16.4517 69.4441C15.8704 69.5757 15.5828 69.7054 15.5828 70.0982C15.5828 70.491 15.8448 70.6284 16.2389 70.6284C16.8772 70.6284 17.2299 70.2356 17.2299 69.8271Z" fill="white"/>
<path d="M21.4345 71.3045V70.8135H21.4108C21.1232 71.1984 20.7961 71.4184 20.207 71.4184C19.2731 71.4184 18.749 70.8213 18.749 69.9061V67.1113H19.8563V69.7176C19.8563 70.2085 20.077 70.4776 20.5538 70.4776C21.0778 70.4776 21.397 70.0848 21.397 69.529V67.1113H22.5122V71.3025H21.4384L21.4345 71.3045Z" fill="white"/>
<path d="M22.8196 69.2151C22.8196 67.9071 23.5663 67.0017 24.6145 67.0017C25.2036 67.0017 25.574 67.2707 25.8025 67.6223H25.8262V65.4658H26.9413V71.3067H25.8675V70.7588H25.8518C25.6055 71.1594 25.1878 71.4285 24.5987 71.4285C23.5407 71.4285 22.8196 70.5702 22.8196 69.2151ZM25.8518 69.2387C25.8518 68.4373 25.5897 67.8992 24.8765 67.8992C24.2618 67.8992 23.9505 68.4393 23.9505 69.2151C23.9505 69.9909 24.2697 70.4976 24.843 70.4976C25.507 70.4976 25.8518 70.0066 25.8518 69.2387Z" fill="white"/>
<path d="M27.2546 69.2046C27.2546 67.9633 28.0979 66.999 29.3273 66.999C30.6789 66.999 31.4 68.0282 31.4 69.5228H28.352C28.4348 70.1689 28.7954 70.5676 29.4258 70.5676C29.8593 70.5676 30.1135 70.3712 30.2376 70.053H31.335C31.1794 70.7974 30.5154 71.4259 29.4337 71.4259C28.0407 71.4259 27.2546 70.4537 27.2546 69.2046ZM28.3678 68.7568H30.2356C30.2021 68.2265 29.8494 67.8573 29.3431 67.8573C28.754 67.8573 28.4663 68.2088 28.3678 68.7568Z" fill="white"/>
<path d="M32.9743 65.4639H35.5967C36.2272 65.4639 36.7119 65.619 37.0153 65.8881C37.3345 66.1748 37.4822 66.5264 37.4822 66.982C37.4822 67.5791 37.1138 67.9621 36.5641 68.1506V68.1742C37.2123 68.3627 37.6536 68.9009 37.6536 69.6197C37.6536 70.1676 37.4822 70.5428 37.1374 70.8374C36.8005 71.132 36.2843 71.3028 35.6617 71.3028H32.9743V65.4619V65.4639ZM35.4489 67.8167C35.9651 67.8167 36.3178 67.5712 36.3178 67.1136C36.3178 66.6816 35.9986 66.4282 35.4745 66.4282H34.1623V67.8167H35.4489ZM34.1623 70.3248H35.5317C36.105 70.3248 36.4498 70.0066 36.4498 69.5313C36.4498 68.9755 36.04 68.6907 35.4982 68.6907H34.1623V70.3248Z" fill="white"/>
<path d="M37.9334 69.2046C37.9334 67.9633 38.7767 66.999 40.0061 66.999C41.3577 66.999 42.0788 68.0282 42.0788 69.5228H39.0309C39.1136 70.1689 39.4742 70.5676 40.1046 70.5676C40.5381 70.5676 40.7923 70.3712 40.9164 70.053H42.0138C41.8582 70.7974 41.1942 71.4259 40.1125 71.4259C38.7196 71.4259 37.9334 70.4537 37.9334 69.2046ZM39.0486 68.7568H40.9164C40.8829 68.2265 40.5302 67.8573 40.0239 67.8573C39.4348 67.8573 39.1471 68.2088 39.0486 68.7568Z" fill="white"/>
<path d="M43.4659 67.7852H43.4896C43.7437 67.3119 44.0314 67.0664 44.522 67.0664C44.6441 67.0664 44.719 67.0743 44.784 67.0998V68.072H44.7604C44.0314 67.9993 43.5073 68.3823 43.5073 69.2641V71.3067H42.3921V67.1155H43.4659V67.7852Z" fill="white"/>
<path d="M46.1533 67.6864H46.177C46.4646 67.2367 46.8488 67.001 47.4222 67.001C48.2911 67.001 48.8723 67.655 48.8723 68.5702V71.3061H47.7571V68.7332C47.7571 68.2835 47.4951 67.9653 47.0281 67.9653C46.5356 67.9653 46.175 68.3581 46.175 68.9296V71.3061H45.0599V67.1149H46.1494V67.6864H46.1533Z" fill="white"/>
<path d="M51.875 70.8386H51.8592C51.6464 71.1567 51.343 71.4022 50.6219 71.4022C49.7609 71.4022 49.1541 70.9525 49.1541 70.1198C49.1541 69.1967 49.9087 68.9021 50.8426 68.7725C51.54 68.6743 51.8592 68.6173 51.8592 68.2991C51.8592 67.9967 51.6208 67.8003 51.1539 67.8003C50.6298 67.8003 50.3756 67.9888 50.3421 68.3895H49.3511C49.3846 67.6549 49.9323 67.0088 51.1618 67.0088C52.3912 67.0088 52.931 67.5725 52.931 68.5525V70.6854C52.931 71.0036 52.9803 71.1921 53.0788 71.2648V71.306H52.005C51.94 71.2235 51.8986 71.0291 51.873 70.8405L51.875 70.8386ZM51.8829 69.8271V69.1986C51.6858 69.3126 51.3824 69.3793 51.1046 69.4441C50.5234 69.5757 50.2357 69.7054 50.2357 70.0982C50.2357 70.491 50.4978 70.6284 50.8918 70.6284C51.5302 70.6284 51.8829 70.2356 51.8829 69.8271Z" fill="white"/>
<path d="M54.5053 67.7852H54.5289C54.7831 67.3119 55.0707 67.0664 55.5613 67.0664C55.6835 67.0664 55.7584 67.0743 55.8234 67.0998V68.072H55.7997C55.0707 67.9993 54.5467 68.3823 54.5467 69.2641V71.3067H53.4315V67.1155H54.5053V67.7852Z" fill="white"/>
<path d="M55.7761 69.2151C55.7761 67.9071 56.5228 67.0017 57.571 67.0017C58.1601 67.0017 58.5305 67.2707 58.7591 67.6223H58.7827V65.4658H59.8979V71.3067H58.8241V70.7588H58.8083C58.562 71.1594 58.1443 71.4285 57.5552 71.4285C56.4972 71.4285 55.7761 70.5702 55.7761 69.2151ZM58.8083 69.2387C58.8083 68.4373 58.5463 67.8992 57.833 67.8992C57.2183 67.8992 56.907 68.4393 56.907 69.2151C56.907 69.9909 57.2262 70.4976 57.7995 70.4976C58.4635 70.4976 58.8083 70.0066 58.8083 69.2387Z" fill="white"/>
<path d="M44.8412 20.9112L48.1551 20.9053L48.1807 34.4372L55.8608 34.4234L55.8667 37.1809L44.8746 37.2005L44.8451 20.9112H44.8412Z" fill="white"/>
<path d="M55.4175 38.5696H56.5149C57.7483 38.5656 58.2507 37.9273 58.2488 36.9689C58.2488 36.3306 58.0183 35.5804 57.3523 33.8029L54.1841 25.4933L57.4528 25.4874L59.2004 30.747C59.5688 31.8173 59.959 33.2962 59.959 33.2962H60.0043C60.0043 33.2962 60.3215 31.8154 60.686 30.743L62.3213 25.4776L65.452 25.4717L61.3835 37.4619C60.4968 40.0602 59.6299 40.997 57.2538 41.001L55.4254 41.0049L55.4215 38.5676L55.4175 38.5696Z" fill="white"/>
<path d="M64.7152 31.3301C64.7093 27.844 67.1957 25.1514 70.8289 25.1455C74.462 25.1396 76.9584 27.8224 76.9663 31.3085C76.9741 34.7946 74.4857 37.4873 70.8525 37.4931C67.2194 37.499 64.7231 34.8162 64.7171 31.3301H64.7152ZM73.8119 31.3144C73.8079 29.0362 72.7302 27.4886 70.8328 27.4925C68.9138 27.4964 67.8636 29.048 67.8696 31.3242C67.8755 33.6005 68.9276 35.1265 70.8466 35.1226C72.744 35.1187 73.8158 33.5907 73.8099 31.3125L73.8119 31.3144Z" fill="white"/>
<path d="M80.8161 27.0409H80.8851C81.6831 25.7859 82.7549 25.1241 84.3547 25.1201C86.7781 25.1162 88.4036 26.9349 88.4076 29.4861L88.4213 37.1182L85.3123 37.1241L85.2985 29.9476C85.2965 28.6946 84.5636 27.8069 83.2612 27.8108C81.8899 27.8128 80.8871 28.9087 80.889 30.5034L80.9009 37.1319L77.7918 37.1378L77.7701 25.4501L80.8102 25.4442V27.0389L80.8161 27.0409Z" fill="white"/>
<path d="M94.9843 25.6933L91.3728 25.6992L91.3688 23.6036C93.3332 23.5309 95.071 22.8671 95.4079 20.7715L98.2411 20.7656L98.2707 37.1002L95.002 37.106L94.9803 25.6933H94.9843Z" fill="white"/>
<path d="M7.56777 52.8455L7.54807 41.796L10.862 41.7901L10.8817 52.8396C10.8857 54.5247 11.7329 55.709 13.9494 55.705C16.0517 55.7011 17.0329 54.4697 17.029 52.7826L17.0093 41.7784L20.3232 41.7725L20.3429 52.8219C20.3488 56.308 18.2052 58.3387 14.0223 58.3466C9.79416 58.3545 7.57368 56.3767 7.56777 52.8455Z" fill="white"/>
<path d="M24.9415 47.9608H25.0105C25.8084 46.7058 26.8803 46.044 28.4801 46.04C30.9035 46.0361 32.529 47.8548 32.5329 50.406L32.5467 58.0381L29.4377 58.044L29.4239 50.8675C29.4219 49.6145 28.689 48.7268 27.3866 48.7307C26.0153 48.7327 25.0125 49.8286 25.0144 51.4233L25.0262 58.0518L21.9172 58.0577L21.8955 46.37L24.9356 46.3641V47.9589L24.9415 47.9608Z" fill="white"/>
<path d="M33.8589 41.7491L36.968 41.7432L36.9739 44.5222L33.8648 44.5281L33.8589 41.7491ZM33.8668 46.3507L36.9759 46.3448L36.9975 58.0325L33.8885 58.0384L33.8668 46.3507Z" fill="white"/>
<path d="M37.2497 46.3448L40.4041 46.3389L42.2897 52.3959C42.6345 53.5114 42.8197 54.2637 42.8197 54.2637H42.865C42.865 54.2637 43.0226 53.5114 43.3635 52.3939L45.2726 46.3311L48.3817 46.3252L44.3112 58.0188L41.34 58.0247L37.2497 46.3448Z" fill="white"/>
<path d="M47.6448 52.1581C47.6389 48.6956 49.9875 46.003 53.4157 45.9971C57.1868 45.9892 59.2024 48.8567 59.2103 53.0262L50.7086 53.0419C50.9411 54.8409 51.9479 55.9565 53.7073 55.9526C54.919 55.9506 55.6264 55.4026 55.9672 54.513L59.029 54.5071C58.5995 56.581 56.7514 58.3388 53.7329 58.3447C49.8476 58.3526 47.6488 55.6442 47.6429 52.1581H47.6448ZM50.7519 50.8992L55.9633 50.8894C55.8687 49.4085 54.8855 48.3853 53.467 48.3873C51.8218 48.3892 51.0238 49.3712 50.7519 50.8972V50.8992Z" fill="white"/>
<path d="M63.0148 48.1654H63.0838C63.7891 46.8417 64.5891 46.1582 65.9604 46.1562C66.3032 46.1562 66.5081 46.1779 66.6913 46.2466L66.6973 48.9569H66.6283C64.593 48.7566 63.1331 49.8289 63.137 52.2898L63.1468 57.9854L60.0378 57.9913L60.0161 46.3035L63.0109 46.2977L63.0148 48.1654Z" fill="white"/>
<path d="M66.6086 54.1969L69.4891 54.1911C69.698 55.5344 70.6575 56.1256 72.0524 56.1236C73.4237 56.1217 74.2 55.5953 74.198 54.7763C74.1961 53.6608 72.7105 53.5488 71.1106 53.2326C69.0064 52.8261 66.9494 52.2604 66.9455 49.7092C66.9416 47.1796 69.0419 45.9698 71.7155 45.9639C74.8009 45.958 76.517 47.4821 76.7515 49.8271L73.9399 49.833C73.8 48.5799 73.0001 48.1262 71.6741 48.1282C70.4624 48.1302 69.6645 48.5878 69.6645 49.4303C69.6645 50.432 71.221 50.5203 72.8898 50.8601C74.8561 51.2667 77.0273 51.8087 77.0332 54.5426C77.0372 56.8896 75.0295 58.3056 72.1036 58.3096C68.699 58.3154 66.7977 56.6794 66.6106 54.1969H66.6086Z" fill="white"/>
<path d="M77.8667 41.668L80.9757 41.6621L80.9816 44.4412L77.8726 44.4471L77.8667 41.668ZM77.8765 46.2696L80.9856 46.2637L81.0073 57.9515L77.8982 57.9574L77.8765 46.2696Z" fill="white"/>
<path d="M81.4269 46.2644L83.0504 46.2604L83.0445 42.6153L86.0846 42.6094L86.0905 46.2545L88.1021 46.2506L88.1061 48.301L86.0945 48.305L86.1063 54.5014C86.1063 55.3675 86.589 55.6621 87.2746 55.6621C87.6628 55.6621 88.1888 55.6385 88.1888 55.6385L88.1928 57.9167C88.1928 57.9167 87.4855 57.9639 86.2501 57.9658C84.7409 57.9678 83.0721 57.3786 83.0681 55.1691L83.0563 48.3108L81.4328 48.3148L81.4289 46.2644H81.4269Z" fill="white"/>
<path d="M88.0391 52.0836C88.0332 48.6211 90.3817 45.9284 93.81 45.9226C97.5811 45.9147 99.5966 48.7821 99.6045 52.9517L91.1029 52.9674C91.3354 54.7664 92.3422 55.882 94.1016 55.878C95.3133 55.8761 96.0206 55.3281 96.3615 54.4384L99.4233 54.4325C98.9938 56.5065 97.1456 58.2643 94.1272 58.2702C90.2419 58.278 88.0431 55.5697 88.0371 52.0836H88.0391ZM91.1442 50.8247L96.3556 50.8149C96.261 49.334 95.2778 48.3108 93.8593 48.3127C92.2141 48.3167 91.4161 49.2967 91.1442 50.8247ZM94.9961 44.7815L92.5727 44.7854L93.8238 41.5703L97.457 41.5645L94.9941 44.7815H94.9961Z" fill="white"/>
</g>
<defs>
<linearGradient id="paint0_linear_417_2" x1="24.8292" y1="77.2905" x2="94.697" y2="10.5379" gradientUnits="userSpaceOnUse">
<stop stop-color="#FF0000"/>
<stop offset="0.08" stop-color="#FF0009"/>
<stop offset="0.23" stop-color="#FF0023"/>
<stop offset="0.41" stop-color="#FF004D"/>
<stop offset="0.62" stop-color="#FF0087"/>
<stop offset="0.86" stop-color="#FF00D1"/>
<stop offset="1" stop-color="#FF00FF"/>
</linearGradient>
<clipPath id="clip0_417_2">
<rect width="106" height="120" fill="white"/>
</clipPath>
</defs>
</svg>
